<?xml version="1.0" encoding="utf-8"?>
<!-- Generator: Adobe Illustrator 24.2.3, SVG Export Plug-In . SVG Version: 6.00 Build 0)  -->
<svg version="1.1" id="圖層_1" xmlns="http://www.w3.org/2000/svg" xmlns:xlink="http://www.w3.org/1999/xlink" x="0px" y="0px"
	 viewBox="0 0 29 25" style="enable-background:new 0 0 29 25;" width="29px" height="25px" xml:space="preserve">
<g>
	<path d="M4.7,24.7c-2.8-3.2-4.2-7.2-4.2-12C0.5,8,1.9,3.9,4.7,0.6h1.9C3.8,4.1,2.3,8.1,2.3,12.7c0,4.6,1.4,8.6,4.3,12H4.7z"/>
	<path d="M12.6,9.9C10.2,8.8,9,7.2,9,5.1c0-1.4,0.6-2.6,1.7-3.5c1.1-0.9,2.5-1.3,4.1-1.3c1.5,0,2.7,0.4,3.7,1.3
		c1,0.8,1.5,1.9,1.5,3.3c0,2.2-1.2,3.9-3.7,5.1V10c2.9,1.1,4.3,2.9,4.3,5.3c0,1.7-0.6,3-1.8,3.9S16,20.6,14,20.6
		c-1.6,0-3-0.5-4.1-1.4c-1.1-0.9-1.6-2.2-1.6-3.7C8.3,13,9.7,11.1,12.6,9.9L12.6,9.9z M14.3,11c-2.5,1-3.8,2.5-3.8,4.4
		c0,1.1,0.4,1.9,1.1,2.5c0.8,0.6,1.7,0.9,2.9,0.9c1.1,0,2.1-0.3,2.8-0.9c0.7-0.6,1.1-1.4,1.1-2.4C18.5,13.5,17.1,12,14.3,11z
		 M17.8,5.1c0-0.9-0.3-1.7-0.9-2.2c-0.6-0.5-1.4-0.8-2.3-0.8c-0.9,0-1.7,0.3-2.3,0.8c-0.7,0.6-1,1.3-1,2.1c0,1.7,1.1,3.1,3.2,3.9
		C16.7,8,17.8,6.7,17.8,5.1z"/>
	<path d="M22.3,24.7c2.9-3.4,4.3-7.4,4.3-12c0-4.6-1.4-8.7-4.3-12.1h1.9c2.8,3.3,4.3,7.4,4.3,12.2c0,4.7-1.4,8.7-4.3,12H22.3z"/>
</g>
</svg>
