<svg xmlns="http://www.w3.org/2000/svg" viewBox="0 0 28.02 24.46" width="29px" height="25px"><g id="圖層_2" data-name="圖層 2"><g id="注意事項"><path d="M4.24,24.46A17.51,17.51,0,0,1,0,12.49,18.17,18.17,0,0,1,4.24.33H6.17A18.46,18.46,0,0,0,1.85,12.47a18.09,18.09,0,0,0,4.29,12Z"/><path d="M19.51,20H7.74V18.08l5.73-5.77A21.17,21.17,0,0,0,17,8.16a6,6,0,0,0,.65-2.74,3.56,3.56,0,0,0-1-2.68,4,4,0,0,0-2.83-.94A7.35,7.35,0,0,0,8.76,4.08V1.82A8.28,8.28,0,0,1,14.09,0a5.77,5.77,0,0,1,4.07,1.41,4.94,4.94,0,0,1,1.53,3.82,7.4,7.4,0,0,1-1,3.65,23.42,23.42,0,0,1-3.81,4.6L10.28,18v.06h9.23Z"/><path d="M21.85,24.46a18.06,18.06,0,0,0,4.28-12A18.4,18.4,0,0,0,21.81.33h1.94A18.09,18.09,0,0,1,28,12.49a17.47,17.47,0,0,1-4.27,12Z"/></g></g></svg>