<svg xmlns="http://www.w3.org/2000/svg" viewBox="0 0 28.02 24.46" width="29px" height="25px"><g id="圖層_2" data-name="圖層 2"><g id="注意事項"><path d="M4.24,24.46A17.51,17.51,0,0,1,0,12.49,18.17,18.17,0,0,1,4.24.33H6.17A18.46,18.46,0,0,0,1.85,12.47a18.09,18.09,0,0,0,4.29,12Z"/><path d="M8.21,16.92a7.14,7.14,0,0,0,4.55,1.6,5.1,5.1,0,0,0,3.31-1,3.41,3.41,0,0,0,1.27-2.83q0-3.93-5.55-3.93H10.17V8.91h1.55q4.92,0,4.92-3.68c0-2.28-1.25-3.41-3.75-3.41A6.17,6.17,0,0,0,9,3.25V1.13A8.47,8.47,0,0,1,13.42,0a5.86,5.86,0,0,1,3.87,1.28,4.25,4.25,0,0,1,1.52,3.4c0,2.58-1.31,4.24-3.94,5v.05a5.2,5.2,0,0,1,3.37,1.47,4.4,4.4,0,0,1,1.27,3.22,5.29,5.29,0,0,1-1.93,4.3,7.55,7.55,0,0,1-4.95,1.6,8.17,8.17,0,0,1-4.42-1.06Z"/><path d="M21.85,24.46a18.06,18.06,0,0,0,4.28-12A18.4,18.4,0,0,0,21.81.33h1.94A18.09,18.09,0,0,1,28,12.49a17.47,17.47,0,0,1-4.27,12Z"/></g></g></svg>