<?xml version="1.0" encoding="utf-8"?>
<!-- Generator: Adobe Illustrator 24.2.3, SVG Export Plug-In . SVG Version: 6.00 Build 0)  -->
<svg version="1.1" id="圖層_1" xmlns="http://www.w3.org/2000/svg" xmlns:xlink="http://www.w3.org/1999/xlink" x="0px" y="0px"
	 viewBox="0 0 29 25" style="enable-background:new 0 0 29 25;" width="29px" height="25px" xml:space="preserve">
<g>
	<path d="M4.7,24.7c-2.8-3.2-4.2-7.2-4.2-12C0.5,8,1.9,3.9,4.7,0.6h1.9C3.8,4.1,2.3,8.1,2.3,12.7c0,4.6,1.4,8.6,4.3,12H4.7z"/>
	<path d="M9.3,17.9c1.1,0.6,2.3,0.9,3.5,0.9c1.8,0,3.2-0.7,4.2-2.2c1-1.5,1.5-3.5,1.5-6.2c0,0,0,0-0.1,0c-0.8,1.7-2.3,2.6-4.4,2.6
		c-1.7,0-3.1-0.6-4.2-1.7S8.2,8.6,8.2,6.8c0-1.9,0.6-3.4,1.7-4.7c1.1-1.2,2.7-1.9,4.6-1.9c2,0,3.5,0.8,4.5,2.3
		c1,1.5,1.6,3.8,1.6,6.7c0,3.6-0.7,6.4-2.1,8.4s-3.3,3-5.9,3c-1.3,0-2.4-0.2-3.4-0.7V17.9z M10.4,6.5c0,1.4,0.4,2.5,1.1,3.3
		c0.7,0.8,1.7,1.2,3,1.2c1.1,0,2-0.4,2.8-1.1c0.7-0.7,1.1-1.6,1.1-2.7c0-1.5-0.4-2.7-1.1-3.7c-0.7-1-1.7-1.5-2.9-1.5
		c-1.1,0-2.1,0.4-2.8,1.3C10.8,4.2,10.4,5.3,10.4,6.5z"/>
	<path d="M22.3,24.7c2.9-3.4,4.3-7.4,4.3-12c0-4.6-1.4-8.7-4.3-12.1h1.9c2.8,3.3,4.3,7.4,4.3,12.2c0,4.7-1.4,8.7-4.3,12H22.3z"/>
</g>
</svg>
