<?xml version="1.0" encoding="utf-8"?>
<!-- Generator: Adobe Illustrator 24.2.3, SVG Export Plug-In . SVG Version: 6.00 Build 0)  -->
<svg version="1.1" id="圖層_1" xmlns="http://www.w3.org/2000/svg" xmlns:xlink="http://www.w3.org/1999/xlink" x="0px" y="0px"
	 viewBox="0 0 29 25" style="enable-background:new 0 0 29 25;" width="29px" height="25px" xml:space="preserve">
<g>
	<path d="M4.7,24.6c-2.8-3.2-4.2-7.2-4.2-12c0-4.8,1.4-8.8,4.2-12.2h1.9C3.8,3.9,2.3,8,2.3,12.6c0,4.6,1.4,8.6,4.3,12H4.7z"/>
	<path d="M20.7,1.1l-7.8,19h-2.2l7.4-17.7h-10V0.4h12.6V1.1z"/>
	<path d="M22.3,24.6c2.9-3.4,4.3-7.4,4.3-12c0-4.6-1.4-8.7-4.3-12.1h1.9c2.8,3.3,4.3,7.4,4.3,12.2c0,4.7-1.4,8.7-4.3,12H22.3z"/>
</g>
</svg>
