<?xml version="1.0" encoding="utf-8"?>
<!-- Generator: Adobe Illustrator 24.2.3, SVG Export Plug-In . SVG Version: 6.00 Build 0)  -->
<svg version="1.1" id="圖層_1" xmlns="http://www.w3.org/2000/svg" xmlns:xlink="http://www.w3.org/1999/xlink" x="0px" y="0px"
	 viewBox="0 0 29 25" style="enable-background:new 0 0 29 25;" width="29px" height="25px" xml:space="preserve">
<g id="圖層_2_1_">
	<g id="注意事項">
		<path d="M4.4,25c-3-3.4-4.5-7.9-4.4-12.4C-0.1,8,1.4,3.5,4.4,0h2c-3,3.5-4.5,8-4.5,12.6c-0.1,4.5,1.5,9,4.4,12.4L4.4,25z"/>
		<path d="M21.3,14.9h-2.6v5.5h-2.2v-5.5H6.8v-1.4L15.9,0h2.7v13.1h2.6V14.9z M16.4,13.1V4.2c0-0.6,0-1.3,0.1-2.1h-0.1
			c-0.2,0.5-0.5,1.1-0.8,1.6l-6.4,9.4H16.4z"/>
		<path d="M22.6,25c2.9-3.5,4.5-7.9,4.4-12.4c0.1-4.6-1.5-9-4.5-12.6h2c3,3.5,4.5,8,4.4,12.6c0.1,4.5-1.4,9-4.4,12.4L22.6,25z"/>
	</g>
</g>
</svg>
