<?xml version="1.0" encoding="utf-8"?>
<!-- Generator: Adobe Illustrator 24.2.3, SVG Export Plug-In . SVG Version: 6.00 Build 0)  -->
<svg version="1.1" id="圖層_1" xmlns="http://www.w3.org/2000/svg" xmlns:xlink="http://www.w3.org/1999/xlink" x="0px" y="0px"
	 viewBox="0 0 29 25" style="enable-background:new 0 0 29 25;" width="29px" height="25px" xml:space="preserve">
<g>
	<path d="M4.7,24.6c-2.8-3.2-4.2-7.2-4.2-12c0-4.8,1.4-8.8,4.2-12.2h1.9C3.8,3.9,2.3,8,2.3,12.6c0,4.6,1.4,8.6,4.3,12H4.7z"/>
	<path d="M9.2,17.3c1.3,0.9,2.7,1.3,4.1,1.3c1.4,0,2.5-0.4,3.4-1.2c0.9-0.8,1.3-1.9,1.3-3.2c0-1.3-0.4-2.4-1.3-3.1
		c-0.9-0.7-2.1-1.1-3.8-1.1c-0.5,0-1.5,0.1-3.1,0.2V0.4h9.4v1.9h-7.4v5.9c0.7,0,1.3-0.1,1.7-0.1c2.1,0,3.7,0.5,4.9,1.6
		c1.2,1,1.8,2.5,1.8,4.4c0,2-0.6,3.5-1.9,4.6c-1.3,1.1-2.9,1.7-5,1.7c-1.8,0-3.2-0.3-4-0.8V17.3z"/>
	<path d="M22.3,24.6c2.9-3.4,4.3-7.4,4.3-12c0-4.6-1.4-8.7-4.3-12.1h1.9c2.8,3.3,4.3,7.4,4.3,12.2c0,4.7-1.4,8.7-4.3,12H22.3z"/>
</g>
</svg>
