<?xml version="1.0" encoding="utf-8"?>
<!-- Generator: Adobe Illustrator 24.2.3, SVG Export Plug-In . SVG Version: 6.00 Build 0)  -->
<svg version="1.1" id="圖層_1" xmlns="http://www.w3.org/2000/svg" xmlns:xlink="http://www.w3.org/1999/xlink" x="0px" y="0px"
	 viewBox="0 0 29 25" style="enable-background:new 0 0 29 25;" width="29px" height="25px" xml:space="preserve">
<g>
	<path d="M4.7,24.7c-2.8-3.2-4.2-7.2-4.2-12C0.5,8,1.9,3.9,4.7,0.6h1.9C3.8,4.1,2.3,8.1,2.3,12.7c0,4.6,1.4,8.6,4.3,12H4.7z"/>
	<path d="M19.7,2.9c-1-0.5-2.1-0.8-3.2-0.8c-1.8,0-3.2,0.8-4.3,2.4s-1.6,3.7-1.5,6.4h0.1C11.6,8.9,13.1,8,15.2,8
		c1.7,0,3.1,0.6,4.1,1.7s1.5,2.6,1.5,4.4c0,1.9-0.6,3.4-1.7,4.7c-1.2,1.2-2.6,1.9-4.4,1.9c-2,0-3.6-0.8-4.7-2.4s-1.6-3.8-1.6-6.6
		c0-3.3,0.7-6.1,2.1-8.2c1.4-2.1,3.4-3.2,5.9-3.2c1.4,0,2.5,0.2,3.2,0.6V2.9z M10.8,13.8c0,1.4,0.4,2.6,1.1,3.5s1.7,1.4,2.9,1.4
		c1.2,0,2.1-0.4,2.8-1.3c0.7-0.8,1.1-1.9,1.1-3.2c0-1.4-0.3-2.5-1-3.3c-0.7-0.8-1.6-1.2-2.9-1.2c-1.1,0-2.1,0.4-2.8,1.2
		C11.2,11.7,10.8,12.7,10.8,13.8z"/>
	<path d="M22.3,24.7c2.9-3.4,4.3-7.4,4.3-12c0-4.6-1.4-8.7-4.3-12.1h1.9c2.8,3.3,4.3,7.4,4.3,12.2c0,4.7-1.4,8.7-4.3,12H22.3z"/>
</g>
</svg>
