<?xml version="1.0" encoding="utf-8"?>
<!-- Generator: Adobe Illustrator 24.2.3, SVG Export Plug-In . SVG Version: 6.00 Build 0)  -->
<svg version="1.1"  xmlns="http://www.w3.org/2000/svg" xmlns:xlink="http://www.w3.org/1999/xlink" x="0px" y="0px"
	 viewBox="0 0 50 50" style="enable-background:new 0 0 50 50;" width="50px" height="50px" xml:space="preserve">
<style type="text/css">
	.st0{fill:#222222;}
</style>
	<path class="st0" d="M43,0.4c2.1,0,3.1,0.9,3.1,2.7c0,0.7-0.3,1.4-0.9,2.1L29.1,24.1l17.6,20.6c0.6,0.7,0.9,1.4,0.9,2.1
		c0,1.9-1,2.8-3.1,2.8c-1.2,0-2.3-0.6-3.2-1.8L25,28.9l-16.2,19c-1,1.2-2,1.8-3.2,1.8c-2.1,0-3.1-0.9-3.1-2.8c0-0.7,0.3-1.4,0.9-2.1
		L21,24.1L4.9,5.3C4.3,4.6,4,3.9,4,3.1c0-1.8,1-2.7,3-2.7c1.2,0,2.2,0.6,3.2,1.7l14.8,17.2L39.8,2.1C40.8,1,41.9,0.4,43,0.4z"/>
</svg>
